{
  "accessors": [
    {
      "bufferView": 2,
      "componentType": 5126,
      "count": 1068,
      "max": [
        0.17466500401496887,
        0.17466500401496887,
        -0.0017229999648407102
      ],
      "min": [
        -0.17466500401496887,
        -0.17466500401496887,
        -0.0017229999648407102
      ],
      "type": "VEC3"
    },
    {
      "bufferView": 2,
      "byteOffset": 12816,
      "componentType": 5126,
      "count": 1068,
      "max": [
        0.0,
        -0.0,
        -1.0
      ],
      "min": [
        0.0,
        -0.0,
        -1.0
      ],
      "type": "VEC3"
    },
    {
      "bufferView": 3,
      "componentType": 5126,
      "count": 1068,
      "max": [
        0.9999933838844299,
        0.9854307174682617,
        0.0,
        1.0
      ],
      "min": [
        0.170077383518219,
        -0.9379366636276245,
        0.0,
        1.0
      ],
      "type": "VEC4"
    },
    {
      "bufferView": 1,
      "componentType": 5126,
      "count": 1068,
      "max": [
        0.5612120032310486,
        0.13472199440002441
      ],
      "min": [
        0.4293749928474426,
        0.0006440000142902136
      ],
      "type": "VEC2"
    },
    {
      "bufferView": 0,
      "componentType": 5125,
      "count": 3246,
      "type": "SCALAR"
    },
    {
      "bufferView": 2,
      "byteOffset": 25632,
      "componentType": 5126,
      "count": 65532,
      "max": [
        0.17466500401496887,
        0.17466500401496887,
        0.016016000881791115
      ],
      "min": [
        -0.17466500401496887,
        -0.17466500401496887,
        -0.0017229999648407102
      ],
      "type": "VEC3"
    },
    {
      "bufferView": 2,
      "byteOffset": 812016,
      "componentType": 5126,
      "count": 65532,
      "max": [
        1.0,
        1.0,
        1.0
      ],
      "min": [
        -1.0,
        -1.0,
        -0.9986804723739624
      ],
      "type": "VEC3"
    },
    {
      "bufferView": 3,
      "byteOffset": 17088,
      "componentType": 5126,
      "count": 65532,
      "max": [
        1.0,
        1.0,
        1.0,
        1.0
      ],
      "min": [
        -1.0,
        -1.0,
        -1.0,
        -1.0
      ],
      "type": "VEC4"
    },
    {
      "bufferView": 1,
      "byteOffset": 8544,
      "componentType": 5126,
      "count": 65532,
      "max": [
        0.9981690049171448,
        0.9993559718132019
      ],
      "min": [
        0.0006440000142902136,
        0.0006440000142902136
      ],
      "type": "VEC2"
    },
    {
      "bufferView": 0,
      "byteOffset": 12984,
      "componentType": 5125,
      "count": 353202,
      "type": "SCALAR"
    },
    {
      "bufferView": 2,
      "byteOffset": 1598400,
      "componentType": 5126,
      "count": 7865,
      "max": [
        0.1663929969072342,
        0.16356100142002106,
        0.014525000005960464
      ],
      "min": [
        -0.16356100142002106,
        -0.16950500011444092,
        -0.0017229999648407102
      ],
      "type": "VEC3"
    },
    {
      "bufferView": 2,
      "byteOffset": 1692780,
      "componentType": 5126,
      "count": 7865,
      "max": [
        0.9999966621398926,
        0.9999831914901733,
        1.0
      ],
      "min": [
        -0.9999831914901733,
        -0.9999831914901733,
        -0.8337643146514893
      ],
      "type": "VEC3"
    },
    {
      "bufferView": 3,
      "byteOffset": 1065600,
      "componentType": 5126,
      "count": 7865,
      "max": [
        0.9998636841773987,
        0.9999933242797852,
        0.9999988675117493,
        1.0
      ],
      "min": [
        -0.9961580634117126,
        -0.9981501698493958,
        -0.9999929666519165,
        -1.0
      ],
      "type": "VEC4"
    },
    {
      "bufferView": 1,
      "byteOffset": 532800,
      "componentType": 5126,
      "count": 7865,
      "max": [
        0.9931920170783997,
        0.9957119822502136
      ],
      "min": [
        0.002882000058889389,
        0.0020439999643713236
      ],
      "type": "VEC2"
    },
    {
      "bufferView": 0,
      "byteOffset": 1425792,
      "componentType": 5125,
      "count": 35568,
      "type": "SCALAR"
    }
  ],
  "asset": {
    "extras": {
      "author": "Life_is_awsome (https://sketchfab.com/Life_is_awsome)",
      "license": "CC-BY-4.0 (http://creativecommons.org/licenses/by/4.0/)",
      "source": "https://sketchfab.com/3d-models/chess-f004f7515fc544788143f7c799d1c598",
      "title": "CHESS"
    },
    "generator": "Sketchfab-12.67.0",
    "version": "2.0"
  },
  "bufferViews": [
    {
      "buffer": 0,
      "byteLength": 1568064,
      "name": "floatBufferViews",
      "target": 34963
    },
    {
      "buffer": 0,
      "byteLength": 595720,
      "byteOffset": 1568064,
      "byteStride": 8,
      "name": "floatBufferViews",
      "target": 34962
    },
    {
      "buffer": 0,
      "byteLength": 1787160,
      "byteOffset": 2163784,
      "byteStride": 12,
      "name": "floatBufferViews",
      "target": 34962
    },
    {
      "buffer": 0,
      "byteLength": 1191440,
      "byteOffset": 3950944,
      "byteStride": 16,
      "name": "floatBufferViews",
      "target": 34962
    }
  ],
  "buffers": [
    {
      "byteLength": 5142384,
      "uri": "scene.bin"
    }
  ],
  "images": [
    {
      "uri": "textures/LAST.001_baseColor.png"
    },
    {
      "uri": "textures/LAST.001_metallicRoughness.png"
    },
    {
      "uri": "textures/LAST.001_normal.png"
    }
  ],
  "materials": [
    {
      "doubleSided": true,
      "name": "LAST.001",
      "normalTexture": {
        "index": 2
      },
      "pbrMetallicRoughness": {
        "baseColorTexture": {
          "index": 0
        },
        "metallicRoughnessTexture": {
          "index": 1
        }
      }
    }
  ],
  "meshes": [
    {
      "name": "Object_0",
      "primitives": [
        {
          "attributes": {
            "NORMAL": 1,
            "POSITION": 0,
            "TANGENT": 2,
            "TEXCOORD_0": 3
          },
          "indices": 4,
          "material": 0,
          "mode": 4
        }
      ]
    },
    {
      "name": "Object_1",
      "primitives": [
        {
          "attributes": {
            "NORMAL": 6,
            "POSITION": 5,
            "TANGENT": 7,
            "TEXCOORD_0": 8
          },
          "indices": 9,
          "material": 0,
          "mode": 4
        }
      ]
    },
    {
      "name": "Object_2",
      "primitives": [
        {
          "attributes": {
            "NORMAL": 11,
            "POSITION": 10,
            "TANGENT": 12,
            "TEXCOORD_0": 13
          },
          "indices": 14,
          "material": 0,
          "mode": 4
        }
      ]
    }
  ],
  "nodes": [
    {
      "children": [
        1
      ],
      "matrix": [
        1.0,
        0.0,
        0.0,
        0.0,
        0.0,
        2.220446049250313e-16,
        -1.0,
        0.0,
        0.0,
        1.0,
        2.220446049250313e-16,
        0.0,
        0.0,
        0.0,
        0.0,
        1.0
      ],
      "name": "Sketchfab_model"
    },
    {
      "children": [
        2,
        3,
        4
      ],
      "name": "CHESS_MP_triangle.obj.cleaner.materialmerger.gles"
    },
    {
      "mesh": 0,
      "name": "Object_2"
    },
    {
      "mesh": 1,
      "name": "Object_3"
    },
    {
      "mesh": 2,
      "name": "Object_4"
    }
  ],
  "samplers": [
    {
      "magFilter": 9729,
      "minFilter": 9987,
      "wrapS": 10497,
      "wrapT": 10497
    }
  ],
  "scene": 0,
  "scenes": [
    {
      "name": "Sketchfab_Scene",
      "nodes": [
        0
      ]
    }
  ],
  "textures": [
    {
      "sampler": 0,
      "source": 0
    },
    {
      "sampler": 0,
      "source": 1
    },
    {
      "sampler": 0,
      "source": 2
    }
  ]
}
