{
  "accessors": [
    {
      "bufferView": 2,
      "componentType": 5126,
      "count": 65532,
      "max": [
        0.3508850634098053,
        0.3633687198162079,
        3.22096848487854
      ],
      "min": [
        -0.35064369440078735,
        -0.3385576009750366,
        2.2940833568573
      ],
      "type": "VEC3"
    },
    {
      "bufferView": 2,
      "byteOffset": 786384,
      "componentType": 5126,
      "count": 65532,
      "max": [
        0.9844896793365479,
        1.0,
        0.8220398426055908
      ],
      "min": [
        -1.0,
        -0.9918261170387268,
        -0.5531201958656311
      ],
      "type": "VEC3"
    },
    {
      "bufferView": 1,
      "componentType": 5126,
      "count": 65532,
      "max": [
        1.0000003576278687,
        0.9375001192092896
      ],
      "min": [
        0.00976567529141903,
        0.31249988079071045
      ],
      "type": "VEC2"
    },
    {
      "bufferView": 0,
      "componentType": 5125,
      "count": 373176,
      "type": "SCALAR"
    },
    {
      "bufferView": 2,
      "byteOffset": 1572768,
      "componentType": 5126,
      "count": 65532,
      "max": [
        0.6615880131721497,
        0.661948561668396,
        3.0524230003356934
      ],
      "min": [
        -0.6615878939628601,
        -0.661948561668396,
        -0.12935791909694672
      ],
      "type": "VEC3"
    },
    {
      "bufferView": 2,
      "byteOffset": 2359152,
      "componentType": 5126,
      "count": 65532,
      "max": [
        1.0,
        0.9957438111305237,
        1.0
      ],
      "min": [
        -0.9866905808448792,
        -0.9913864731788635,
        -1.0
      ],
      "type": "VEC3"
    },
    {
      "bufferView": 1,
      "byteOffset": 524256,
      "componentType": 5126,
      "count": 65532,
      "max": [
        1.000000238418579,
        0.8046876192092896
      ],
      "min": [
        2.3094953505164995e-08,
        0.01000000536441803
      ],
      "type": "VEC2"
    },
    {
      "bufferView": 0,
      "byteOffset": 1492704,
      "componentType": 5125,
      "count": 356388,
      "type": "SCALAR"
    },
    {
      "bufferView": 2,
      "byteOffset": 3145536,
      "componentType": 5126,
      "count": 65532,
      "max": [
        0.22931019961833954,
        0.2550292909145355,
        2.2940833568573
      ],
      "min": [
        -0.29096898436546326,
        -0.19261907041072845,
        2.1428606510162354
      ],
      "type": "VEC3"
    },
    {
      "bufferView": 2,
      "byteOffset": 3931920,
      "componentType": 5126,
      "count": 65532,
      "max": [
        0.6409178972244263,
        0.6962271928787231,
        -0.5530796647071838
      ],
      "min": [
        -0.8330543637275696,
        -0.5732944011688232,
        -0.9789455533027649
      ],
      "type": "VEC3"
    },
    {
      "bufferView": 1,
      "byteOffset": 1048512,
      "componentType": 5126,
      "count": 65532,
      "max": [
        0.9980471730232239,
        0.3125000298023224
      ],
      "min": [
        6.527019280611057e-08,
        0.041666626930236816
      ],
      "type": "VEC2"
    },
    {
      "bufferView": 0,
      "byteOffset": 2918256,
      "componentType": 5125,
      "count": 372048,
      "type": "SCALAR"
    },
    {
      "bufferView": 2,
      "byteOffset": 4718304,
      "componentType": 5126,
      "count": 65532,
      "max": [
        0.29640457034111023,
        0.3037162125110626,
        3.2209525108337402
      ],
      "min": [
        -0.2712704837322235,
        -0.2499149739742279,
        2.186443567276001
      ],
      "type": "VEC3"
    },
    {
      "bufferView": 2,
      "byteOffset": 5504688,
      "componentType": 5126,
      "count": 65532,
      "max": [
        0.9519286155700684,
        0.9107467532157898,
        0.8219679594039917
      ],
      "min": [
        -0.7773040533065796,
        -0.9202907085418701,
        -0.856306791305542
      ],
      "type": "VEC3"
    },
    {
      "bufferView": 1,
      "byteOffset": 1572768,
      "componentType": 5126,
      "count": 65532,
      "max": [
        0.9980467557907104,
        0.937071681022644
      ],
      "min": [
        1.2977732666286101e-08,
        0.171875
      ],
      "type": "VEC2"
    },
    {
      "bufferView": 0,
      "byteOffset": 4406448,
      "componentType": 5125,
      "count": 380115,
      "type": "SCALAR"
    },
    {
      "bufferView": 2,
      "byteOffset": 6291072,
      "componentType": 5126,
      "count": 65532,
      "max": [
        0.3204447627067566,
        0.3633687198162079,
        3.220850706100464
      ],
      "min": [
        -0.33138999342918396,
        -0.29192981123924255,
        2.235506296157837
      ],
      "type": "VEC3"
    },
    {
      "bufferView": 2,
      "byteOffset": 7077456,
      "componentType": 5126,
      "count": 65532,
      "max": [
        0.897086501121521,
        1.0,
        0.8210752010345459
      ],
      "min": [
        -0.9456256628036499,
        -0.8875978589057922,
        -0.717776358127594
      ],
      "type": "VEC3"
    },
    {
      "bufferView": 1,
      "byteOffset": 2097024,
      "componentType": 5126,
      "count": 65532,
      "max": [
        0.9941301345825195,
        0.9363505840301514
      ],
      "min": [
        2.4835271617007493e-09,
        0.244140625
      ],
      "type": "VEC2"
    },
    {
      "bufferView": 0,
      "byteOffset": 5926908,
      "componentType": 5125,
      "count": 376218,
      "type": "SCALAR"
    },
    {
      "bufferView": 2,
      "byteOffset": 7863840,
      "componentType": 5126,
      "count": 65532,
      "max": [
        0.136757031083107,
        0.14484252035617828,
        3.2473132610321045
      ],
      "min": [
        -0.21609418094158173,
        -0.12403198331594467,
        2.1343328952789307
      ],
      "type": "VEC3"
    },
    {
      "bufferView": 2,
      "byteOffset": 8650224,
      "componentType": 5126,
      "count": 65532,
      "max": [
        0.7764423489570618,
        0.7531763911247253,
        0.9966236352920532
      ],
      "min": [
        -0.8308130502700806,
        -0.7764490842819214,
        -0.9983530640602112
      ],
      "type": "VEC3"
    },
    {
      "bufferView": 1,
      "byteOffset": 2621280,
      "componentType": 5126,
      "count": 65532,
      "max": [
        1.0000003576278687,
        1.0000001192092896
      ],
      "min": [
        7.948862901230314e-08,
        0.0
      ],
      "type": "VEC2"
    },
    {
      "bufferView": 0,
      "byteOffset": 7431780,
      "componentType": 5125,
      "count": 277104,
      "type": "SCALAR"
    },
    {
      "bufferView": 2,
      "byteOffset": 9436608,
      "componentType": 5126,
      "count": 65532,
      "max": [
        0.3504679501056671,
        0.3114796280860901,
        3.2473132610321045
      ],
      "min": [
        -0.35064369440078735,
        -0.34454408288002014,
        2.1343328952789307
      ],
      "type": "VEC3"
    },
    {
      "bufferView": 2,
      "byteOffset": 10222992,
      "componentType": 5126,
      "count": 65532,
      "max": [
        0.9832668900489807,
        0.8541548848152161,
        0.9966123700141907
      ],
      "min": [
        -1.0,
        -1.0,
        -0.9983472228050232
      ],
      "type": "VEC3"
    },
    {
      "bufferView": 1,
      "byteOffset": 3145536,
      "componentType": 5126,
      "count": 65532,
      "max": [
        0.9980620741844177,
        1.0000001192092896
      ],
      "min": [
        0.0,
        0.0
      ],
      "type": "VEC2"
    },
    {
      "bufferView": 0,
      "byteOffset": 8540196,
      "componentType": 5125,
      "count": 361188,
      "type": "SCALAR"
    },
    {
      "bufferView": 2,
      "byteOffset": 11009376,
      "componentType": 5126,
      "count": 65532,
      "max": [
        0.3536474108695984,
        0.20424680411815643,
        3.2473132610321045
      ],
      "min": [
        -0.32533788681030273,
        -0.34454408288002014,
        2.1343328952789307
      ],
      "type": "VEC3"
    },
    {
      "bufferView": 2,
      "byteOffset": 11795760,
      "componentType": 5126,
      "count": 65532,
      "max": [
        0.9935168623924255,
        0.5504322648048401,
        0.996636152267456
      ],
      "min": [
        -0.9542239904403687,
        -1.0,
        -0.9983575940132141
      ],
      "type": "VEC3"
    },
    {
      "bufferView": 1,
      "byteOffset": 3669792,
      "componentType": 5126,
      "count": 65532,
      "max": [
        0.6517603397369385,
        1.0000001192092896
      ],
      "min": [
        0.03027346171438694,
        0.0
      ],
      "type": "VEC2"
    },
    {
      "bufferView": 0,
      "byteOffset": 9984948,
      "componentType": 5125,
      "count": 254310,
      "type": "SCALAR"
    },
    {
      "bufferView": 2,
      "byteOffset": 12582144,
      "componentType": 5126,
      "count": 65534,
      "max": [
        0.6615880131721497,
        0.661948561668396,
        3.2473132610321045
      ],
      "min": [
        -0.6615878939628601,
        -0.661948561668396,
        -0.12935791909694672
      ],
      "type": "VEC3"
    },
    {
      "bufferView": 2,
      "byteOffset": 13368552,
      "componentType": 5126,
      "count": 65534,
      "max": [
        0.9994200468063354,
        0.9999647736549377,
        1.0
      ],
      "min": [
        -0.9994199872016907,
        -0.9999647736549377,
        -1.0
      ],
      "type": "VEC3"
    },
    {
      "bufferView": 1,
      "byteOffset": 4194048,
      "componentType": 5126,
      "count": 65534,
      "max": [
        1.0,
        1.0000001192092896
      ],
      "min": [
        3.855675458908081e-07,
        0.0
      ],
      "type": "VEC2"
    },
    {
      "bufferView": 0,
      "byteOffset": 11002188,
      "componentType": 5125,
      "count": 240888,
      "type": "SCALAR"
    },
    {
      "bufferView": 2,
      "byteOffset": 14154960,
      "componentType": 5126,
      "count": 27001,
      "max": [
        0.32147637009620667,
        0.009412277489900589,
        3.2473132610321045
      ],
      "min": [
        0.0033125816844403744,
        -0.31410595774650574,
        2.1343328952789307
      ],
      "type": "VEC3"
    },
    {
      "bufferView": 2,
      "byteOffset": 14478972,
      "componentType": 5126,
      "count": 27001,
      "max": [
        0.8997148275375366,
        -0.002304026624187827,
        0.996636152267456
      ],
      "min": [
        -0.0070390463806688786,
        -0.9555278420448303,
        -0.9983587265014648
      ],
      "type": "VEC3"
    },
    {
      "bufferView": 1,
      "byteOffset": 4718320,
      "componentType": 5126,
      "count": 27001,
      "max": [
        0.4687497317790985,
        1.0000001192092896
      ],
      "min": [
        0.25521761178970337,
        0.0
      ],
      "type": "VEC2"
    },
    {
      "bufferView": 0,
      "byteOffset": 11965740,
      "componentType": 5125,
      "count": 83250,
      "type": "SCALAR"
    }
  ],
  "asset": {
    "extras": {
      "author": "outofvoidart (https://sketchfab.com/outofvoidart)",
      "license": "CC-BY-4.0 (http://creativecommons.org/licenses/by/4.0/)",
      "source": "https://sketchfab.com/3d-models/bishop-a3291d7b874e4fa6b4ab5091fd9d79b1",
      "title": "BISHOP"
    },
    "generator": "Sketchfab-12.68.0",
    "version": "2.0"
  },
  "bufferViews": [
    {
      "buffer": 0,
      "byteLength": 12298740,
      "name": "floatBufferViews",
      "target": 34963
    },
    {
      "buffer": 0,
      "byteLength": 4934328,
      "byteOffset": 12298740,
      "byteStride": 8,
      "name": "floatBufferViews",
      "target": 34962
    },
    {
      "buffer": 0,
      "byteLength": 14802984,
      "byteOffset": 17233068,
      "byteStride": 12,
      "name": "floatBufferViews",
      "target": 34962
    }
  ],
  "buffers": [
    {
      "byteLength": 32036052,
      "uri": "scene.bin"
    }
  ],
  "materials": [
    {
      "doubleSided": true,
      "name": "Material.006",
      "pbrMetallicRoughness": {
        "baseColorFactor": [
          0.8,
          0.8,
          0.8,
          1.0
        ],
        "metallicFactor": 0.0,
        "roughnessFactor": 0.8040408205773457
      }
    }
  ],
  "meshes": [
    {
      "name": "Bishop_Material.006_0",
      "primitives": [
        {
          "attributes": {
            "NORMAL": 1,
            "POSITION": 0,
            "TEXCOORD_0": 2
          },
          "indices": 3,
          "material": 0,
          "mode": 4
        }
      ]
    },
    {
      "name": "Bishop_Material.006_0",
      "primitives": [
        {
          "attributes": {
            "NORMAL": 5,
            "POSITION": 4,
            "TEXCOORD_0": 6
          },
          "indices": 7,
          "material": 0,
          "mode": 4
        }
      ]
    },
    {
      "name": "Bishop_Material.006_0",
      "primitives": [
        {
          "attributes": {
            "NORMAL": 9,
            "POSITION": 8,
            "TEXCOORD_0": 10
          },
          "indices": 11,
          "material": 0,
          "mode": 4
        }
      ]
    },
    {
      "name": "Bishop_Material.006_0",
      "primitives": [
        {
          "attributes": {
            "NORMAL": 13,
            "POSITION": 12,
            "TEXCOORD_0": 14
          },
          "indices": 15,
          "material": 0,
          "mode": 4
        }
      ]
    },
    {
      "name": "Bishop_Material.006_0",
      "primitives": [
        {
          "attributes": {
            "NORMAL": 17,
            "POSITION": 16,
            "TEXCOORD_0": 18
          },
          "indices": 19,
          "material": 0,
          "mode": 4
        }
      ]
    },
    {
      "name": "Bishop_Material.006_0",
      "primitives": [
        {
          "attributes": {
            "NORMAL": 21,
            "POSITION": 20,
            "TEXCOORD_0": 22
          },
          "indices": 23,
          "material": 0,
          "mode": 4
        }
      ]
    },
    {
      "name": "Bishop_Material.006_0",
      "primitives": [
        {
          "attributes": {
            "NORMAL": 25,
            "POSITION": 24,
            "TEXCOORD_0": 26
          },
          "indices": 27,
          "material": 0,
          "mode": 4
        }
      ]
    },
    {
      "name": "Bishop_Material.006_0",
      "primitives": [
        {
          "attributes": {
            "NORMAL": 29,
            "POSITION": 28,
            "TEXCOORD_0": 30
          },
          "indices": 31,
          "material": 0,
          "mode": 4
        }
      ]
    },
    {
      "name": "Bishop_Material.006_0",
      "primitives": [
        {
          "attributes": {
            "NORMAL": 33,
            "POSITION": 32,
            "TEXCOORD_0": 34
          },
          "indices": 35,
          "material": 0,
          "mode": 4
        }
      ]
    },
    {
      "name": "Bishop_Material.006_0",
      "primitives": [
        {
          "attributes": {
            "NORMAL": 37,
            "POSITION": 36,
            "TEXCOORD_0": 38
          },
          "indices": 39,
          "material": 0,
          "mode": 4
        }
      ]
    }
  ],
  "nodes": [
    {
      "children": [
        1
      ],
      "matrix": [
        1.0,
        0.0,
        0.0,
        0.0,
        0.0,
        2.220446049250313e-16,
        -1.0,
        0.0,
        0.0,
        1.0,
        2.220446049250313e-16,
        0.0,
        0.0,
        0.0,
        0.0,
        1.0
      ],
      "name": "Sketchfab_model"
    },
    {
      "children": [
        2
      ],
      "matrix": [
        0.009999999776482582,
        0.0,
        0.0,
        0.0,
        0.0,
        0.0,
        0.009999999776482582,
        0.0,
        0.0,
        -0.009999999776482582,
        0.0,
        0.0,
        0.0,
        0.0,
        0.0,
        1.0
      ],
      "name": "3f156903d35c4924867750b7d5d7c35b.fbx"
    },
    {
      "children": [
        3
      ],
      "name": "RootNode"
    },
    {
      "children": [
        4,
        5,
        6,
        7,
        8,
        9,
        10,
        11,
        12,
        13
      ],
      "matrix": [
        100.0,
        0.0,
        0.0,
        0.0,
        0.0,
        -1.629206793918314e-05,
        -99.99999999999868,
        0.0,
        0.0,
        99.99999999999868,
        -1.629206793918314e-05,
        0.0,
        0.0,
        0.0,
        0.0,
        1.0
      ],
      "name": "Bishop"
    },
    {
      "mesh": 0,
      "name": "Bishop_Material.006_0"
    },
    {
      "mesh": 1,
      "name": "Bishop_Material.006_0"
    },
    {
      "mesh": 2,
      "name": "Bishop_Material.006_0"
    },
    {
      "mesh": 3,
      "name": "Bishop_Material.006_0"
    },
    {
      "mesh": 4,
      "name": "Bishop_Material.006_0"
    },
    {
      "mesh": 5,
      "name": "Bishop_Material.006_0"
    },
    {
      "mesh": 6,
      "name": "Bishop_Material.006_0"
    },
    {
      "mesh": 7,
      "name": "Bishop_Material.006_0"
    },
    {
      "mesh": 8,
      "name": "Bishop_Material.006_0"
    },
    {
      "mesh": 9,
      "name": "Bishop_Material.006_0"
    }
  ],
  "scene": 0,
  "scenes": [
    {
      "name": "Sketchfab_Scene",
      "nodes": [
        0
      ]
    }
  ]
}
