{
  "accessors": [
    {
      "bufferView": 2,
      "componentType": 5126,
      "count": 23414,
      "max": [
        1.1999963521957397,
        1.2000000476837158,
        0.7567500472068787
      ],
      "min": [
        0.0,
        0.0,
        0.0
      ],
      "type": "VEC3"
    },
    {
      "bufferView": 2,
      "byteOffset": 280968,
      "componentType": 5126,
      "count": 23414,
      "max": [
        1.0,
        1.0,
        1.0
      ],
      "min": [
        -1.0,
        -1.0,
        -1.0
      ],
      "type": "VEC3"
    },
    {
      "bufferView": 1,
      "componentType": 5126,
      "count": 23414,
      "max": [
        1.0,
        2.3909122943878174
      ],
      "min": [
        -3.023983955383301,
        -3.273395538330078
      ],
      "type": "VEC2"
    },
    {
      "bufferView": 0,
      "componentType": 5125,
      "count": 71781,
      "type": "SCALAR"
    },
    {
      "bufferView": 2,
      "byteOffset": 561936,
      "componentType": 5126,
      "count": 2637,
      "max": [
        0.899996280670166,
        1.034999966621399,
        0.746649980545044
      ],
      "min": [
        0.11943664401769638,
        0.00020053893967997283,
        0.0
      ],
      "type": "VEC3"
    },
    {
      "bufferView": 2,
      "byteOffset": 593580,
      "componentType": 5126,
      "count": 2637,
      "max": [
        1.0,
        1.0,
        1.0
      ],
      "min": [
        -1.0,
        -1.0,
        -1.0
      ],
      "type": "VEC3"
    },
    {
      "bufferView": 1,
      "byteOffset": 187312,
      "componentType": 5126,
      "count": 2637,
      "max": [
        1.0,
        1.0
      ],
      "min": [
        -3.220961332321167,
        -3.101702928543091
      ],
      "type": "VEC2"
    },
    {
      "bufferView": 0,
      "byteOffset": 287124,
      "componentType": 5125,
      "count": 6765,
      "type": "SCALAR"
    },
    {
      "bufferView": 2,
      "byteOffset": 625224,
      "componentType": 5126,
      "count": 8915,
      "max": [
        0.8985516428947449,
        1.034999966621399,
        0.7522500157356262
      ],
      "min": [
        0.10370990633964539,
        3.700501110870391e-06,
        4.534649999249352e-12
      ],
      "type": "VEC3"
    },
    {
      "bufferView": 2,
      "byteOffset": 732204,
      "componentType": 5126,
      "count": 8915,
      "max": [
        1.0,
        1.0,
        1.0
      ],
      "min": [
        -1.0,
        -0.9999988675117493,
        -1.0
      ],
      "type": "VEC3"
    },
    {
      "bufferView": 1,
      "byteOffset": 208408,
      "componentType": 5126,
      "count": 8915,
      "max": [
        1.0,
        2.384350299835205
      ],
      "min": [
        -3.735086441040039,
        -3.1030867099761963
      ],
      "type": "VEC2"
    },
    {
      "bufferView": 0,
      "byteOffset": 314184,
      "componentType": 5125,
      "count": 17151,
      "type": "SCALAR"
    }
  ],
  "asset": {
    "extras": {
      "author": "Grupo Oca (https://sketchfab.com/grupooca)",
      "license": "CC-BY-4.0 (http://creativecommons.org/licenses/by/4.0/)",
      "source": "https://sketchfab.com/3d-models/mesa-spin-delucci-agave-casa-237197c4ef66490babeba7fe68391ee0",
      "title": "MESA SPIN DELUCCI AGAVE CASA"
    },
    "generator": "Sketchfab-15.98.0",
    "version": "2.0"
  },
  "bufferViews": [
    {
      "buffer": 0,
      "byteLength": 382788,
      "name": "floatBufferViews",
      "target": 34963
    },
    {
      "buffer": 0,
      "byteLength": 279728,
      "byteOffset": 382788,
      "byteStride": 8,
      "name": "floatBufferViews",
      "target": 34962
    },
    {
      "buffer": 0,
      "byteLength": 839184,
      "byteOffset": 662516,
      "byteStride": 12,
      "name": "floatBufferViews",
      "target": 34962
    }
  ],
  "buffers": [
    {
      "byteLength": 1501700,
      "uri": "scene.bin"
    }
  ],
  "extensionsRequired": [
    "KHR_materials_pbrSpecularGlossiness"
  ],
  "extensionsUsed": [
    "KHR_materials_pbrSpecularGlossiness"
  ],
  "images": [
    {
      "uri": "textures/ESTRUT50_diffuse.jpeg"
    }
  ],
  "materials": [
    {
      "doubleSided": true,
      "extensions": {
        "KHR_materials_pbrSpecularGlossiness": {
          "diffuseFactor": [
            1.0,
            1.0,
            1.0,
            1.0
          ],
          "diffuseTexture": {
            "index": 0
          },
          "glossinessFactor": 0.4,
          "specularFactor": [
            0.0,
            0.0,
            0.0
          ]
        }
      },
      "name": "ESTRUT50"
    }
  ],
  "meshes": [
    {
      "name": "Object_0",
      "primitives": [
        {
          "attributes": {
            "NORMAL": 1,
            "POSITION": 0,
            "TEXCOORD_0": 2
          },
          "indices": 3,
          "material": 0,
          "mode": 4
        }
      ]
    },
    {
      "name": "Object_1",
      "primitives": [
        {
          "attributes": {
            "NORMAL": 5,
            "POSITION": 4,
            "TEXCOORD_0": 6
          },
          "indices": 7,
          "material": 0,
          "mode": 4
        }
      ]
    },
    {
      "name": "Object_2",
      "primitives": [
        {
          "attributes": {
            "NORMAL": 9,
            "POSITION": 8,
            "TEXCOORD_0": 10
          },
          "indices": 11,
          "material": 0,
          "mode": 4
        }
      ]
    }
  ],
  "nodes": [
    {
      "children": [
        1
      ],
      "matrix": [
        1.0,
        0.0,
        0.0,
        0.0,
        0.0,
        2.220446049250313e-16,
        -1.0,
        0.0,
        0.0,
        1.0,
        2.220446049250313e-16,
        0.0,
        0.0,
        0.0,
        0.0,
        1.0
      ],
      "name": "Sketchfab_model"
    },
    {
      "children": [
        2
      ],
      "name": "8cf1dde66f5749aa8f94933683a2c2b8.3ds"
    },
    {
      "children": [
        3,
        4,
        5
      ],
      "name": "Model"
    },
    {
      "mesh": 0,
      "name": "Object_3"
    },
    {
      "mesh": 1,
      "name": "Object_4"
    },
    {
      "mesh": 2,
      "name": "Object_5"
    }
  ],
  "samplers": [
    {
      "magFilter": 9729,
      "minFilter": 9987,
      "wrapS": 10497,
      "wrapT": 10497
    }
  ],
  "scene": 0,
  "scenes": [
    {
      "name": "Sketchfab_Scene",
      "nodes": [
        0
      ]
    }
  ],
  "textures": [
    {
      "sampler": 0,
      "source": 0
    }
  ]
}
